<?xml version="1.0" standalone="no"?>
<!DOCTYPE svg PUBLIC "-//W3C//DTD SVG 20010904//EN"
 "http://www.w3.org/TR/2001/REC-SVG-20010904/DTD/svg10.dtd">
<svg version="1.0" xmlns="http://www.w3.org/2000/svg"
 width="1024.000000pt" height="1024.000000pt" viewBox="0 0 1024.000000 1024.000000"
 preserveAspectRatio="xMidYMid meet">
<metadata>
Created by potrace 1.16, written by Peter Selinger 2001-2019
</metadata>
<g transform="translate(0.000000,1024.000000) scale(0.100000,-0.100000)"
fill="#000000" stroke="none">
<path d="M5060 8724 c-787 -67 -1432 -307 -2035 -759 -658 -492 -1147 -1217
-1340 -1985 -84 -335 -109 -543 -109 -905 0 -259 5 -328 39 -555 136 -900 652
-1748 1410 -2316 533 -401 1126 -640 1811 -730 160 -22 596 -25 759 -6 596 68
1130 253 1615 556 484 304 939 787 1230 1304 392 699 545 1561 414 2341 -104
620 -370 1200 -788 1716 -120 147 -393 419 -541 537 -548 438 -1201 708 -1905
788 -99 11 -482 21 -560 14z m262 -305 c206 -44 345 -248 307 -452 -57 -315
-418 -432 -646 -210 -89 87 -137 228 -115 339 33 160 147 283 297 320 65 16
92 16 157 3z m606 -92 c50 -46 14 -137 -55 -137 -67 0 -105 74 -67 128 31 45
78 49 122 9z m-1259 -3 c29 -37 27 -89 -4 -118 -50 -46 -135 -8 -135 61 0 75
95 113 139 57z m-614 -130 c22 -9 46 -59 38 -81 -11 -33 -36 -53 -63 -53 -41
0 -73 31 -73 68 0 55 46 86 98 66z m2530 -135 c50 -6 128 -22 175 -35 86 -25
268 -107 305 -139 l20 -17 -20 8 c-54 19 -192 44 -301 55 -141 13 -348 1 -535
-31 -111 -20 -301 -25 -374 -11 -29 6 -29 7 38 49 164 104 440 152 692 121z
m-1975 -105 c65 -16 70 -19 40 -22 -119 -10 -505 -101 -682 -162 -225 -76
-626 -220 -713 -256 -18 -7 -19 -6 -6 9 25 31 136 115 224 171 179 112 485
227 722 272 101 19 320 13 415 -12z m-107 -143 c-22 -22 -79 -93 -126 -158
-123 -171 -178 -217 -336 -283 -41 -16 -75 -30 -77 -30 -8 0 126 218 164 266
78 99 224 196 345 229 75 20 75 19 30 -24z m2187 4 c174 -38 391 -146 506
-251 l59 -54 -62 30 c-121 59 -414 154 -628 205 -113 27 -325 65 -363 65 -41
0 -19 10 44 20 86 13 355 4 444 -15z m-2659 -122 c-57 -64 -118 -158 -182
-278 -74 -140 -110 -194 -175 -265 -55 -59 -222 -195 -230 -187 -9 9 52 191
95 282 77 162 189 297 321 389 53 36 203 116 209 111 2 -2 -15 -26 -38 -52z
m1939 21 c35 -30 54 -63 65 -113 l7 -34 -56 7 c-100 11 -206 64 -206 102 0 7
14 24 31 38 43 37 115 37 159 0z m-1237 -8 c26 -20 21 -34 -22 -55 -39 -20
-182 -64 -188 -57 -8 7 60 88 90 106 37 23 94 26 120 6z m1737 -10 c219 -79
385 -236 499 -470 42 -86 96 -235 88 -243 -7 -6 -159 109 -219 165 -64 61 -89
95 -241 327 -36 55 -95 133 -132 173 -37 39 -65 72 -63 72 2 0 32 -11 68 -24z
m-190 -111 c38 -19 84 -48 103 -64 33 -30 128 -157 111 -150 -66 29 -205 107
-227 127 -22 21 -67 100 -67 118 0 8 12 3 80 -31z m-3261 -1 c37 -31 41 -69 9
-109 -19 -24 -26 -27 -62 -22 -85 12 -105 103 -31 145 31 18 51 14 84 -14z
m571 -49 c0 -2 -24 -30 -52 -61 -55 -58 -138 -172 -198 -271 -34 -56 -227
-259 -237 -249 -9 8 38 160 70 226 40 83 162 207 278 283 114 74 139 87 139
72z m3449 -77 c210 -131 310 -265 356 -477 l7 -34 -31 23 c-70 49 -161 154
-253 291 -54 79 -123 172 -154 207 -31 34 -53 62 -49 62 5 0 61 -33 124 -72z
m-1529 31 c244 -23 527 -108 775 -231 329 -164 641 -426 866 -728 216 -290
369 -675 430 -1085 26 -177 28 -489 4 -670 -35 -263 -107 -505 -220 -742 -112
-234 -242 -412 -459 -628 -309 -307 -663 -513 -1067 -618 -209 -55 -389 -74
-389 -41 0 19 5 21 151 49 178 36 362 92 519 159 248 106 478 251 448 281 -4
4 -33 -11 -65 -32 -80 -55 -244 -145 -349 -194 -193 -89 -491 -172 -651 -181
-58 -4 -63 -3 -62 16 0 13 3 16 6 7 4 -9 7 -10 12 -2 4 6 16 13 27 15 512 105
807 235 1119 492 90 74 253 233 330 324 66 78 105 129 105 139 0 30 -24 11
-86 -67 -165 -209 -435 -441 -663 -571 -233 -131 -587 -248 -798 -264 -46 -4
-53 -2 -53 14 0 21 20 27 21 7 0 -10 2 -10 6 -1 2 7 -3 21 -13 30 -16 17 -16
18 -1 21 9 2 17 10 17 17 0 9 -6 12 -15 9 -9 -4 -15 0 -15 9 0 9 15 17 43 21
108 17 344 82 461 127 273 104 489 245 711 465 106 104 196 213 194 236 0 9
-2 9 -6 -2 -10 -25 -271 -280 -358 -349 -280 -224 -672 -396 -979 -427 l-66
-7 0 37 c0 33 7 41 33 37 5 -1 6 3 2 8 -3 6 -12 8 -19 5 -11 -4 -14 9 -15 60
0 46 3 66 12 67 15 1 28 3 155 29 253 52 514 167 703 310 57 43 160 135 229
204 l125 126 213 0 c197 0 212 -1 212 -18 0 -10 -5 -23 -12 -30 -20 -20 1 -26
23 -6 24 22 79 113 79 132 0 9 -196 12 -945 12 l-945 0 0 -127 c2 -371 21
-1218 30 -1348 6 -82 22 -258 36 -390 29 -291 30 -334 5 -383 -49 -95 -167
-96 -220 -2 -26 46 -27 105 -6 292 52 474 64 734 68 1436 l2 522 -928 0 -928
0 26 -47 c32 -60 91 -130 100 -121 4 4 0 17 -9 30 -33 47 -30 48 188 48 l204
0 144 -144 c300 -300 594 -450 1022 -521 22 -4 35 -10 30 -13 -13 -10 -17 -42
-4 -42 5 0 10 -5 10 -11 0 -5 -4 -7 -10 -4 -5 3 -10 -1 -10 -9 0 -8 5 -18 10
-21 17 -11 11 -43 -10 -50 -11 -3 -20 -10 -20 -15 0 -4 9 -6 20 -3 16 4 20 0
20 -21 0 -32 -11 -33 -140 -6 -409 86 -800 307 -1085 612 -38 41 -87 95 -108
119 -27 31 -32 34 -17 12 12 -18 18 -33 15 -33 -4 0 30 -42 75 -92 292 -331
630 -534 1080 -649 63 -16 122 -32 130 -36 8 -3 21 -7 29 -7 8 -1 16 -7 19
-15 3 -9 -1 -11 -14 -7 -11 3 -26 1 -34 -5 -12 -8 -11 -9 6 -4 18 5 22 1 22
-17 0 -13 3 -35 7 -50 6 -24 5 -27 -16 -23 -13 1 -49 6 -79 9 -30 4 -104 21
-165 38 -471 131 -878 402 -1178 781 -61 78 -87 97 -87 66 0 -32 358 -414 449
-479 19 -14 46 -34 60 -46 115 -93 337 -217 516 -286 125 -49 148 -56 334
-103 191 -48 225 -71 90 -62 -56 3 -135 20 -239 50 -437 127 -752 325 -1095
687 -111 117 -275 325 -275 348 0 5 -7 12 -15 16 -24 9 -18 -19 10 -45 13 -13
25 -31 25 -39 0 -13 28 -55 117 -172 15 -21 38 -40 51 -44 16 -5 21 -11 17
-24 -8 -24 221 -255 360 -366 214 -170 479 -310 720 -382 145 -43 212 -61 268
-71 88 -16 137 -31 137 -41 0 -6 -4 -10 -10 -10 -5 0 -10 5 -10 10 0 6 -8 10
-17 9 -11 0 -13 -3 -5 -6 24 -10 11 -20 -27 -21 -87 -4 -303 46 -472 108 -239
88 -421 191 -654 369 -87 66 -305 281 -395 389 -290 347 -478 795 -529 1264
-23 204 -12 506 25 693 57 289 215 683 363 904 141 209 338 421 531 570 326
252 749 422 1145 461 205 20 301 19 515 -1z m2104 -41 c56 -51 26 -138 -47
-138 -83 0 -108 107 -34 144 42 21 51 20 81 -6z m-5163 -347 l24 -19 3 -466 3
-466 54 0 55 0 0 460 0 461 25 24 c29 30 45 31 79 4 l26 -20 0 -465 0 -465 58
3 57 3 5 470 5 469 27 16 c25 13 30 13 55 -2 16 -9 31 -30 36 -49 5 -17 7
-235 5 -483 -4 -494 -1 -473 -67 -563 -30 -42 -96 -83 -155 -97 l-29 -7 7
-352 c14 -693 15 -776 7 -781 -5 -3 -6 -18 -3 -32 3 -18 1 -25 -6 -20 -6 4 -8
14 -5 23 5 13 2 15 -11 10 -12 -5 -16 -3 -13 5 2 7 9 12 14 11 5 -1 10 10 11
25 1 24 0 25 -9 8 -6 -10 -20 -27 -30 -37 -11 -11 -19 -24 -19 -30 0 -5 -4 -7
-10 -4 -6 4 -2 15 10 27 11 12 20 25 20 29 0 4 3 16 7 26 6 16 5 16 -10 4 -9
-7 -17 -11 -17 -8 0 3 -3 12 -6 21 -4 11 -1 16 10 16 9 0 16 5 16 10 0 12 -3
12 -24 4 -18 -7 -21 -35 -6 -50 12 -12 3 -44 -11 -44 -5 0 -9 12 -9 26 0 19
-4 25 -14 21 -25 -10 -28 58 -24 585 l3 511 -46 13 c-56 17 -130 80 -167 142
l-27 47 -3 482 -3 482 23 20 c27 26 49 26 79 2z m5354 -127 c53 -25 123 -97
160 -164 l30 -55 3 -355 c2 -324 1 -358 -15 -389 -28 -55 -66 -76 -128 -74
-67 2 -123 31 -163 87 -17 23 -40 52 -52 66 l-22 25 7 -45 c15 -94 55 -147
139 -186 117 -55 258 -6 324 111 15 26 18 82 22 475 l5 445 22 -49 c47 -100
48 -114 48 -481 l0 -350 -26 -56 c-36 -77 -91 -129 -173 -165 l-69 -29 6 -432
c4 -270 3 -433 -3 -433 -5 0 -7 -7 -4 -15 5 -11 2 -13 -11 -9 -14 6 -16 3 -11
-13 4 -12 1 -25 -8 -32 -12 -10 -13 -8 -8 11 5 21 4 22 -14 8 -10 -8 -22 -19
-26 -25 -4 -5 -8 5 -8 23 0 28 -2 31 -14 20 -9 -8 -11 -17 -5 -22 5 -6 9 -19
8 -30 0 -20 -1 -20 -11 2 -6 12 -14 22 -17 22 -4 0 -8 12 -9 26 -2 21 2 25 16
20 14 -5 13 -3 -3 9 -17 14 -18 17 -5 25 12 8 12 10 1 10 -12 0 -13 29 -7 178
3 97 9 288 13 425 6 239 6 247 -13 247 -60 0 -184 115 -204 190 -6 24 -9 210
-8 506 l3 468 55 18 c64 21 120 18 175 -8z m-5568 -652 c1 -115 7 -164 38
-306 19 -93 34 -171 32 -173 -9 -8 -87 177 -106 251 -33 125 -27 226 18 339 6
15 12 27 13 27 2 0 4 -62 5 -138z m6201 -302 c5 -104 -15 -177 -74 -265 -45
-66 -230 -260 -211 -220 8 17 29 59 45 95 17 36 66 141 110 233 44 93 86 191
93 218 18 70 32 47 37 -61z m-6262 -201 c43 -85 77 -191 89 -279 l6 -45 -33
58 c-41 71 -149 219 -156 212 -3 -2 18 -39 46 -82 79 -120 109 -198 136 -353
6 -32 2 -29 -41 36 -27 39 -73 109 -104 155 -74 110 -104 201 -103 324 0 61 5
107 18 144 l18 53 40 -68 c22 -38 60 -108 84 -155z m256 -316 c-6 -496 10
-662 103 -1020 25 -95 45 -176 45 -180 0 -16 -53 71 -85 140 -91 193 -144 578
-131 957 3 102 11 214 16 250 10 61 47 200 54 200 1 0 0 -156 -2 -347z m6087
27 c1 -163 -41 -273 -142 -366 -62 -57 -308 -246 -314 -240 -8 8 71 169 110
222 38 53 118 129 211 202 50 39 19 36 -36 -3 -70 -50 -235 -183 -243 -195 -3
-6 -10 -10 -16 -10 -14 0 53 127 107 200 26 36 106 125 178 198 150 153 143
154 145 -8z m-6506 -111 c130 -168 203 -287 221 -363 6 -24 -11 -12 -111 82
-65 61 -120 109 -122 107 -2 -3 42 -52 98 -111 121 -125 154 -173 185 -274 50
-158 54 -157 -94 -25 -142 128 -210 212 -241 301 -25 71 -42 205 -34 269 8 67
17 117 20 113 1 -2 36 -46 78 -99z m6560 -410 c8 -61 -10 -335 -28 -420 -65
-308 -221 -576 -473 -812 -59 -56 -76 -67 -95 -61 -19 6 -20 5 -9 -9 11 -12 8
-18 -14 -36 -27 -21 -27 -21 -46 -2 -10 11 -18 25 -18 31 0 15 20 12 26 -5 4
-8 14 -15 23 -15 12 0 13 2 3 9 -12 7 -19 27 -21 59 -1 6 -5 12 -11 12 -14 0
-12 -27 3 -33 6 -3 2 -6 -10 -6 -31 -1 -37 -18 -19 -46 18 -28 20 -35 7 -35
-5 0 -14 14 -21 31 -11 26 -11 35 0 52 9 15 10 22 1 25 -6 2 -11 8 -11 14 0 6
-7 16 -16 23 -14 10 -14 13 -1 26 8 8 18 26 22 39 4 14 10 27 14 30 3 3 25 30
47 60 69 92 228 253 370 376 74 63 132 120 128 125 -13 22 -241 -167 -422
-350 -121 -122 -156 -151 -164 -140 -7 10 -8 6 -4 -14 5 -19 2 -29 -9 -33 -8
-4 -15 -12 -15 -19 0 -22 -28 -26 -35 -4 -4 11 -15 19 -28 19 -18 0 -19 2 -7
10 10 6 20 4 32 -6 15 -14 16 -14 12 4 -3 10 2 26 10 35 9 9 12 18 7 21 -5 4
-12 0 -15 -6 -3 -7 -4 -1 -2 15 3 29 -8 37 -18 12 -3 -8 -10 -15 -16 -15 -14
0 41 108 109 210 76 117 320 361 479 479 116 87 139 111 108 111 -22 0 -216
-143 -319 -234 -157 -140 -309 -323 -415 -498 -26 -43 -50 -77 -54 -78 -18 0
-7 112 16 172 100 266 306 518 597 730 106 78 276 188 289 188 4 0 10 -19 13
-41z m-6544 -251 c207 -200 274 -274 346 -383 87 -131 159 -270 151 -291 -3
-8 -2 -12 4 -9 6 3 10 -1 10 -9 0 -9 -8 -16 -17 -16 -15 0 -15 -1 2 -13 17
-13 17 -14 -4 -20 -14 -3 -31 1 -44 11 -31 23 -184 179 -301 305 -91 98 -116
120 -116 99 0 -6 36 -49 231 -272 26 -30 73 -90 104 -132 52 -72 61 -98 33
-98 -6 0 -17 -8 -24 -17 -7 -10 -14 -13 -14 -6 0 6 5 15 11 19 8 5 8 9 -1 14
-9 5 -9 9 -1 14 6 4 11 2 11 -4 0 -6 4 -8 10 -5 11 7 -9 45 -24 45 -5 0 -6 -3
-3 -6 4 -4 -3 -20 -15 -36 -14 -20 -23 -26 -28 -18 -4 6 -11 12 -16 12 -29 1
-34 11 -18 29 19 21 6 27 -14 7 -10 -10 -22 -3 -59 37 -175 190 -256 344 -302
573 -20 96 -35 272 -23 272 3 0 53 -46 111 -102z m801 -498 c47 -93 95 -233
105 -303 4 -26 4 -145 0 -263 l-7 -214 -29 46 c-125 197 -181 416 -158 620 12
105 32 194 44 194 2 0 23 -36 45 -80z m1922 -330 c71 -34 142 -56 271 -84 29
-7 34 -29 21 -93 l-6 -30 -50 9 c-153 28 -346 105 -467 187 -33 23 -61 44 -61
46 0 3 47 5 104 5 101 0 107 -1 188 -40z m1270 11 c-88 -75 -332 -178 -488
-204 -90 -15 -91 -15 -93 69 l-1 41 58 6 c68 7 220 55 289 91 43 22 60 25 158
25 l110 0 -33 -28z m-1741 -32 c200 -161 363 -241 613 -304 72 -17 131 -36
133 -41 1 -5 -1 -15 -6 -22 -16 -26 -326 60 -461 128 -167 84 -393 251 -376
278 13 21 32 13 97 -39z m2043 27 c-13 -35 -237 -192 -361 -255 -138 -69 -314
-124 -461 -145 -41 -6 -43 -5 -40 16 3 20 15 25 103 45 135 29 292 85 395 140
84 45 226 139 285 187 33 28 88 36 79 12z m-3654 -403 c42 -33 105 -92 140
-130 76 -80 224 -288 216 -302 -4 -5 -2 -11 3 -13 6 -1 1 -14 -9 -28 -17 -21
-21 -23 -30 -10 -5 8 -10 11 -10 7 0 -4 -6 -3 -12 3 -7 5 -60 47 -118 92 -118
93 -285 230 -399 328 -42 36 -85 72 -95 80 -18 14 -19 14 -9 -5 16 -28 136
-142 288 -270 72 -60 168 -146 215 -191 74 -72 83 -84 71 -98 -14 -17 -2 -23
15 -6 6 6 19 -1 37 -20 l27 -29 -35 -12 c-19 -7 -35 -16 -35 -20 0 -5 16 -1
35 7 43 18 46 18 38 -2 -3 -8 -11 -13 -18 -10 -7 2 -17 0 -23 -6 -12 -12 -92
8 -92 23 0 6 6 6 19 0 18 -10 31 -6 31 11 0 5 -4 7 -9 4 -5 -4 -21 -2 -35 3
-20 8 -24 7 -19 -5 6 -16 -5 -13 -77 25 -186 97 -379 315 -495 556 -50 105
-103 257 -112 321 l-6 45 214 -144 c118 -78 248 -170 289 -204z m4886 225 c18
-85 17 -252 -2 -346 -32 -161 -157 -363 -335 -543 -115 -117 -114 -119 34 -47
120 59 287 134 374 169 116 47 303 109 303 101 0 -15 -127 -131 -187 -172 -34
-22 -101 -57 -147 -76 -81 -32 -482 -144 -518 -144 -9 0 -29 -10 -45 -23 -15
-13 -83 -58 -151 -101 -68 -43 -121 -80 -119 -82 2 -2 23 3 47 11 23 8 176 49
339 91 163 41 334 86 380 100 85 24 108 24 79 1 -149 -118 -215 -159 -314
-196 -99 -37 -192 -52 -394 -62 -107 -5 -218 -13 -245 -18 -61 -11 -324 -112
-325 -125 0 -5 35 -6 78 -2 177 15 448 23 607 17 l170 -6 -50 -32 c-117 -74
-259 -113 -416 -113 -132 0 -221 16 -397 74 -75 24 -158 48 -184 51 -27 4 -48
10 -48 14 0 3 42 19 93 34 394 122 706 302 891 514 70 80 96 137 140 304 19
75 53 178 75 229 39 89 242 451 250 444 2 -1 9 -31 17 -66z m-4437 -138 c3
-165 48 -346 123 -495 65 -130 193 -298 290 -384 85 -74 274 -199 389 -255
117 -58 442 -176 484 -176 33 0 10 -10 -71 -30 -43 -12 -126 -36 -184 -55
-255 -84 -424 -92 -610 -30 -61 20 -218 103 -200 106 149 18 495 14 754 -7 52
-5 77 -3 73 3 -9 15 -240 99 -320 117 -37 9 -148 20 -247 26 -267 15 -377 42
-522 127 -54 32 -208 148 -208 158 0 2 19 -2 43 -10 96 -31 800 -215 805 -211
1 2 -64 46 -145 99 -138 90 -205 137 -175 122 6 -3 12 -2 12 3 0 6 -7 12 -15
16 -24 9 -18 28 7 20 15 -4 -1 21 -54 85 -127 156 -204 300 -249 471 -28 104
-33 295 -9 375 14 49 15 49 21 20 4 -16 7 -59 8 -95z m5088 -10 c-41 -100 -88
-168 -170 -246 -90 -85 -173 -137 -318 -200 -56 -24 -103 -44 -104 -44 -1 0
70 74 159 164 88 90 220 210 291 268 72 58 137 113 145 123 24 29 23 -1 -3
-65z m-4756 -317 c8 -10 69 -66 135 -124 146 -129 192 -188 279 -361 37 -73
87 -159 112 -192 l45 -59 -58 33 c-341 191 -544 446 -544 681 0 43 8 48 31 22z
m3559 -186 c-31 -157 -166 -329 -355 -452 -75 -49 -177 -105 -190 -105 -4 0 9
19 28 43 20 23 65 98 102 166 74 140 114 197 177 257 80 76 240 181 247 162 2
-5 -2 -37 -9 -71z m-2809 -374 c52 -36 94 -85 169 -198 29 -44 67 -95 84 -113
l31 -34 -77 36 c-170 76 -278 172 -346 306 -23 45 -42 88 -42 95 0 15 100 -36
181 -92z m2189 -20 c-39 -123 -148 -229 -307 -300 -62 -27 -76 -24 -46 10 11
12 45 60 75 107 30 47 74 102 97 122 39 33 182 111 189 103 2 -2 -1 -21 -8
-42z m-1732 -173 c123 -59 186 -108 169 -129 -10 -12 -9 -14 7 -8 14 6 17 4
12 -9 -5 -14 -4 -15 9 -4 12 10 15 10 15 -2 0 -8 -6 -20 -12 -27 -11 -12 -9
-13 7 -7 19 6 19 5 2 -8 -15 -12 -27 -12 -85 1 -37 9 -80 22 -96 30 -47 24
-128 105 -147 148 -37 81 -22 83 119 15z m1302 33 c0 -30 -57 -119 -99 -154
-46 -40 -135 -76 -207 -85 -46 -6 -51 -4 -49 12 3 30 16 54 26 48 5 -3 9 1 9
9 0 34 132 122 245 164 74 27 75 27 75 6z m-1132 -387 c9 -6 -35 -29 -135 -72
-270 -117 -414 -153 -556 -140 -73 7 -173 32 -181 45 -3 4 14 14 37 20 23 7
110 38 192 68 220 80 288 93 475 90 85 -1 161 -6 168 -11z m1265 -9 c31 -9
112 -37 180 -63 67 -25 158 -56 202 -69 74 -21 78 -24 54 -33 -72 -28 -123
-36 -234 -36 -154 1 -252 26 -477 123 -91 39 -170 71 -177 71 -6 0 -11 4 -11
9 0 15 60 19 240 16 117 -1 182 -7 223 -18z"/>
<path d="M5207 8176 c-49 -18 -67 -34 -84 -73 -22 -54 -17 -117 13 -153 52
-61 119 -76 184 -41 109 57 107 211 -3 261 -50 23 -60 23 -110 6z"/>
<path d="M4245 7051 c-490 -259 -903 -736 -1079 -1249 -50 -144 -106 -393
-106 -468 0 -2 8 -4 18 -4 14 0 20 18 34 103 102 623 515 1224 1071 1560 56
34 121 71 145 81 23 10 42 23 42 28 0 14 -12 9 -125 -51z"/>
<path d="M5140 6924 c-314 -37 -560 -114 -777 -244 -168 -101 -313 -225 -450
-385 -169 -199 -336 -531 -384 -764 -7 -33 -11 -63 -8 -66 3 -2 785 -6 1738
-7 l1733 -3 -7 40 c-29 187 -142 448 -283 660 -84 126 -298 343 -432 438 -212
150 -477 261 -732 307 -104 19 -328 32 -398 24z m236 -177 c161 -82 307 -308
332 -514 30 -249 -76 -467 -275 -564 -64 -32 -73 -34 -178 -34 -103 0 -114 2
-179 33 -84 40 -189 141 -228 222 -75 154 -78 353 -6 523 48 116 145 243 227
299 107 74 208 85 307 35z m-619 -132 c2 -6 -47 -35 -109 -65 -344 -169 -601
-417 -776 -752 -28 -51 -62 -126 -77 -165 -26 -71 -37 -84 -50 -63 -19 31 106
305 206 451 172 250 450 480 702 580 73 29 98 32 104 14z m1181 -67 c303 -149
586 -429 728 -718 55 -111 98 -235 90 -256 -9 -24 -13 -17 -63 97 -168 391
-433 668 -826 865 -92 46 -110 60 -100 76 8 13 39 2 171 -64z m-1405 -608 c30
-24 40 -60 27 -96 -14 -36 -38 -53 -77 -54 -41 0 -81 35 -89 77 -5 27 -1 37
24 63 36 36 77 39 115 10z m1549 -10 c25 -26 29 -36 24 -63 -14 -71 -95 -101
-141 -51 -34 37 -34 87 1 119 37 35 78 33 116 -5z m-1757 -195 c30 -30 32 -64
4 -99 -43 -55 -129 -23 -129 49 0 70 76 100 125 50z m1960 0 c14 -13 25 -36
25 -50 0 -33 -42 -75 -75 -75 -38 0 -60 15 -74 49 -10 24 -10 34 3 59 25 49
82 57 121 17z"/>
<path d="M6960 6476 c0 -7 7 -19 16 -27 32 -27 173 -249 236 -374 65 -129 134
-302 159 -402 7 -29 16 -53 21 -53 46 0 -112 413 -239 624 -51 85 -171 246
-183 246 -5 0 -10 -6 -10 -14z"/>
<path d="M3663 6303 c-207 -275 -340 -575 -387 -875 -22 -140 -23 -183 -6
-183 11 0 17 18 23 70 36 338 185 709 402 1006 21 27 35 52 32 55 -3 3 -32
-30 -64 -73z"/>
<path d="M3307 5903 c-3 -10 -26 -78 -51 -152 -25 -73 -57 -194 -71 -269 -29
-158 -28 -145 -14 -140 6 2 31 82 55 178 24 96 61 223 82 282 22 59 37 110 34
113 -11 11 -30 4 -35 -12z"/>
<path d="M3498 5226 c19 -55 14 -879 -6 -913 l-13 -23 335 0 c184 0 341 -3
350 -6 12 -5 10 4 -8 37 -30 55 -45 109 -47 177 -2 52 -13 64 -37 40 -7 -7
-68 -13 -172 -16 l-160 -5 0 351 c0 193 4 361 9 374 l9 23 -137 0 -137 0 14
-39z"/>
<path d="M4236 5245 c10 -27 21 -860 13 -910 -4 -22 -6 -41 -5 -42 2 -2 690
-5 731 -3 6 0 6 3 0 8 -39 26 -85 142 -85 210 0 31 -2 34 -22 26 -13 -4 -103
-10 -202 -11 -173 -4 -178 -3 -173 16 5 19 -5 82 -17 112 -7 15 5 17 112 15
113 -1 120 0 159 26 77 51 78 135 3 186 -32 21 -43 23 -147 20 l-113 -3 0 71
0 70 205 -4 c133 -3 205 -1 205 5 0 6 -7 30 -16 54 -9 24 -24 72 -33 107 l-16
63 -303 2 c-299 2 -303 2 -296 -18z"/>
<path d="M5010 5262 c0 -1 9 -19 19 -40 28 -55 87 -119 134 -147 49 -28 155
-47 247 -44 l65 3 3 -138 3 -137 -221 3 c-154 2 -220 0 -220 -8 0 -20 76 -129
110 -157 67 -57 108 -71 217 -75 l102 -4 7 -45 c8 -56 -1 -150 -16 -168 -10
-12 12 -14 139 -17 83 -2 151 -1 151 1 0 3 -8 13 -17 24 -14 15 -19 42 -22
132 l-3 113 46 7 c30 5 51 3 60 -4 8 -7 46 -63 85 -124 39 -62 77 -120 84
-129 11 -14 37 -17 165 -20 84 -2 152 0 152 3 0 3 -10 14 -21 25 -33 29 -89
108 -163 228 -36 59 -66 110 -66 112 0 2 20 22 44 44 139 129 112 394 -53 499
-91 58 -114 60 -594 63 -240 2 -437 2 -437 0z m872 -243 c53 -38 72 -113 43
-169 -27 -52 -81 -80 -152 -80 l-63 0 0 135 0 135 71 0 c57 0 77 -4 101 -21z"/>
<path d="M6671 5244 c-203 -54 -342 -229 -358 -449 -10 -148 31 -257 138 -367
188 -192 473 -195 674 -6 159 149 199 373 101 573 -100 203 -334 308 -555 249z
m236 -267 c165 -104 159 -331 -10 -418 -118 -61 -253 -11 -313 116 -56 117 -9
250 109 310 67 34 152 31 214 -8z"/>
</g>
</svg>
